<svg xmlns="http://www.w3.org/2000/svg" viewBox="0 0 160 160" width="160" height="160" role="img" aria-label="Cendawan Tiram"><title>Cendawan Tiram</title><rect width="160" height="160" rx="20" fill="#E9F2E2"/><ellipse cx="80" cy="132" rx="38" ry="7" fill="#000000" opacity="0.07"/><g transform="rotate(-18.0 60.0 86.0)"><path d="M34.0 86.0 Q60.0 54.8 86.0 86.0 Q60.0 99.0 34.0 86.0 Z" fill="#D8CBB0"/><path d="M41.3 89.0 L44.6 65.7" stroke="#A08F73" stroke-width="1.7" opacity="0.65"/><path d="M48.6 89.0 L50.6 65.7" stroke="#A08F73" stroke-width="1.7" opacity="0.65"/><path d="M55.8 89.0 L56.6 65.7" stroke="#A08F73" stroke-width="1.7" opacity="0.65"/><path d="M64.2 89.0 L63.4 65.7" stroke="#A08F73" stroke-width="1.7" opacity="0.65"/><path d="M71.4 89.0 L69.4 65.7" stroke="#A08F73" stroke-width="1.7" opacity="0.65"/><path d="M78.7 89.0 L75.4 65.7" stroke="#A08F73" stroke-width="1.7" opacity="0.65"/><path d="M34.0 86.0 Q60.0 99.0 86.0 86.0" stroke="#A08F73" stroke-width="2" fill="none" opacity="0.5"/><path d="M54.0 89.0 q6 22.1 12 0 Z" fill="#EDE4D4"/><path d="M54.0 89.0 q6 22.1 12 0" stroke="#A08F73" stroke-width="1.4" fill="none" opacity="0.4"/></g><g transform="rotate(16.0 100.0 96.0)"><path d="M78.0 96.0 Q100.0 69.6 122.0 96.0 Q100.0 107.0 78.0 96.0 Z" fill="#D8CBB0"/><path d="M84.2 99.0 L87.0 78.8" stroke="#A08F73" stroke-width="1.7" opacity="0.65"/><path d="M90.3 99.0 L92.1 78.8" stroke="#A08F73" stroke-width="1.7" opacity="0.65"/><path d="M96.5 99.0 L97.1 78.8" stroke="#A08F73" stroke-width="1.7" opacity="0.65"/><path d="M103.5 99.0 L102.9 78.8" stroke="#A08F73" stroke-width="1.7" opacity="0.65"/><path d="M109.7 99.0 L107.9 78.8" stroke="#A08F73" stroke-width="1.7" opacity="0.65"/><path d="M115.8 99.0 L113.0 78.8" stroke="#A08F73" stroke-width="1.7" opacity="0.65"/><path d="M78.0 96.0 Q100.0 107.0 122.0 96.0" stroke="#A08F73" stroke-width="2" fill="none" opacity="0.5"/><path d="M94.0 99.0 q6 18.7 12 0 Z" fill="#EDE4D4"/><path d="M94.0 99.0 q6 18.7 12 0" stroke="#A08F73" stroke-width="1.4" fill="none" opacity="0.4"/></g><g transform="rotate(4.0 82.0 66.0)"><path d="M61.0 66.0 Q82.0 40.8 103.0 66.0 Q82.0 76.5 61.0 66.0 Z" fill="#D8CBB0"/><path d="M66.9 69.0 L69.6 49.6" stroke="#A08F73" stroke-width="1.7" opacity="0.65"/><path d="M72.8 69.0 L74.4 49.6" stroke="#A08F73" stroke-width="1.7" opacity="0.65"/><path d="M78.6 69.0 L79.2 49.6" stroke="#A08F73" stroke-width="1.7" opacity="0.65"/><path d="M85.4 69.0 L84.8 49.6" stroke="#A08F73" stroke-width="1.7" opacity="0.65"/><path d="M91.2 69.0 L89.6 49.6" stroke="#A08F73" stroke-width="1.7" opacity="0.65"/><path d="M97.1 69.0 L94.4 49.6" stroke="#A08F73" stroke-width="1.7" opacity="0.65"/><path d="M61.0 66.0 Q82.0 76.5 103.0 66.0" stroke="#A08F73" stroke-width="2" fill="none" opacity="0.5"/><path d="M76.0 69.0 q6 17.8 12 0 Z" fill="#EDE4D4"/><path d="M76.0 69.0 q6 17.8 12 0" stroke="#A08F73" stroke-width="1.4" fill="none" opacity="0.4"/></g></svg>