<svg xmlns="http://www.w3.org/2000/svg" viewBox="0 0 160 160" width="160" height="160" role="img" aria-label="Serai"><title>Serai</title><rect width="160" height="160" rx="20" fill="#E9F2E2"/><ellipse cx="80" cy="134" rx="34" ry="7" fill="#000000" opacity="0.07"/><g transform="rotate(-13.0 67.0 110.0)"><path d="M67.0 126 L67.0 74" stroke="#B9CC8A" stroke-width="9" stroke-linecap="round"/><path d="M69.5 124 L69.5 76" stroke="#8EA463" stroke-width="2.6" opacity="0.45" stroke-linecap="round"/><path d="M67.0 78 Q61.0 54 55.0 36" stroke="#5D9E3E" stroke-width="4" fill="none" stroke-linecap="round"/><path d="M67.0 78 Q74.0 56 77.0 40" stroke="#5D9E3E" stroke-width="3.4" fill="none" stroke-linecap="round"/></g><g transform="rotate(-6.5 73.5 110.0)"><path d="M73.5 126 L73.5 74" stroke="#B9CC8A" stroke-width="9" stroke-linecap="round"/><path d="M76.0 124 L76.0 76" stroke="#8EA463" stroke-width="2.6" opacity="0.45" stroke-linecap="round"/><path d="M73.5 78 Q67.5 54 61.5 36" stroke="#5D9E3E" stroke-width="4" fill="none" stroke-linecap="round"/><path d="M73.5 78 Q80.5 56 83.5 40" stroke="#5D9E3E" stroke-width="3.4" fill="none" stroke-linecap="round"/></g><path d="M80.0 126 L80.0 74" stroke="#B9CC8A" stroke-width="9" stroke-linecap="round"/><path d="M82.5 124 L82.5 76" stroke="#8EA463" stroke-width="2.6" opacity="0.45" stroke-linecap="round"/><path d="M80.0 78 Q74.0 54 68.0 36" stroke="#5D9E3E" stroke-width="4" fill="none" stroke-linecap="round"/><path d="M80.0 78 Q87.0 56 90.0 40" stroke="#5D9E3E" stroke-width="3.4" fill="none" stroke-linecap="round"/><g transform="rotate(6.5 86.5 110.0)"><path d="M86.5 126 L86.5 74" stroke="#B9CC8A" stroke-width="9" stroke-linecap="round"/><path d="M89.0 124 L89.0 76" stroke="#8EA463" stroke-width="2.6" opacity="0.45" stroke-linecap="round"/><path d="M86.5 78 Q80.5 54 74.5 36" stroke="#5D9E3E" stroke-width="4" fill="none" stroke-linecap="round"/><path d="M86.5 78 Q93.5 56 96.5 40" stroke="#5D9E3E" stroke-width="3.4" fill="none" stroke-linecap="round"/></g><g transform="rotate(13.0 93.0 110.0)"><path d="M93.0 126 L93.0 74" stroke="#B9CC8A" stroke-width="9" stroke-linecap="round"/><path d="M95.5 124 L95.5 76" stroke="#8EA463" stroke-width="2.6" opacity="0.45" stroke-linecap="round"/><path d="M93.0 78 Q87.0 54 81.0 36" stroke="#5D9E3E" stroke-width="4" fill="none" stroke-linecap="round"/><path d="M93.0 78 Q100.0 56 103.0 40" stroke="#5D9E3E" stroke-width="3.4" fill="none" stroke-linecap="round"/></g><rect x="62" y="100" width="36" height="10" rx="5" fill="#8EA463" opacity="0.7"/></svg>