<svg xmlns="http://www.w3.org/2000/svg" viewBox="0 0 240 240" width="240" height="240">
<rect width="240" height="240" fill="#fff"/>
<rect x="8" y="8" width="224" height="224" rx="10" fill="none" stroke="#E4DDD0" stroke-width="2"/>
<g fill="#22201D"><rect x="26" y="42" width="64" height="64" rx="6"/><rect x="36" y="52" width="44" height="44" rx="3" fill="#fff"/><rect x="45" y="61" width="26" height="26" rx="2"/><rect x="150" y="42" width="64" height="64" rx="6"/><rect x="160" y="52" width="44" height="44" rx="3" fill="#fff"/><rect x="169" y="61" width="26" height="26" rx="2"/><rect x="26" y="150" width="64" height="64" rx="6"/><rect x="36" y="160" width="44" height="44" rx="3" fill="#fff"/><rect x="45" y="169" width="26" height="26" rx="2"/><rect x="91.8" y="42.0" width="7.4" height="7.4" rx="1"/><rect x="101.2" y="42.0" width="7.4" height="7.4" rx="1"/><rect x="120.0" y="42.0" width="7.4" height="7.4" rx="1"/><rect x="138.8" y="42.0" width="7.4" height="7.4" rx="1"/><rect x="91.8" y="51.4" width="7.4" height="7.4" rx="1"/><rect x="110.6" y="51.4" width="7.4" height="7.4" rx="1"/><rect x="120.0" y="51.4" width="7.4" height="7.4" rx="1"/><rect x="129.4" y="51.4" width="7.4" height="7.4" rx="1"/><rect x="138.8" y="51.4" width="7.4" height="7.4" rx="1"/><rect x="91.8" y="60.8" width="7.4" height="7.4" rx="1"/><rect x="110.6" y="60.8" width="7.4" height="7.4" rx="1"/><rect x="120.0" y="60.8" width="7.4" height="7.4" rx="1"/><rect x="101.2" y="70.2" width="7.4" height="7.4" rx="1"/><rect x="120.0" y="70.2" width="7.4" height="7.4" rx="1"/><rect x="138.8" y="70.2" width="7.4" height="7.4" rx="1"/><rect x="91.8" y="79.6" width="7.4" height="7.4" rx="1"/><rect x="101.2" y="79.6" width="7.4" height="7.4" rx="1"/><rect x="110.6" y="79.6" width="7.4" height="7.4" rx="1"/><rect x="129.4" y="79.6" width="7.4" height="7.4" rx="1"/><rect x="101.2" y="89.0" width="7.4" height="7.4" rx="1"/><rect x="120.0" y="89.0" width="7.4" height="7.4" rx="1"/><rect x="129.4" y="89.0" width="7.4" height="7.4" rx="1"/><rect x="138.8" y="89.0" width="7.4" height="7.4" rx="1"/><rect x="101.2" y="98.4" width="7.4" height="7.4" rx="1"/><rect x="110.6" y="98.4" width="7.4" height="7.4" rx="1"/><rect x="129.4" y="98.4" width="7.4" height="7.4" rx="1"/><rect x="138.8" y="98.4" width="7.4" height="7.4" rx="1"/><rect x="44.8" y="107.8" width="7.4" height="7.4" rx="1"/><rect x="91.8" y="107.8" width="7.4" height="7.4" rx="1"/><rect x="110.6" y="107.8" width="7.4" height="7.4" rx="1"/><rect x="120.0" y="107.8" width="7.4" height="7.4" rx="1"/><rect x="138.8" y="107.8" width="7.4" height="7.4" rx="1"/><rect x="157.6" y="107.8" width="7.4" height="7.4" rx="1"/><rect x="204.6" y="107.8" width="7.4" height="7.4" rx="1"/><rect x="54.2" y="117.2" width="7.4" height="7.4" rx="1"/><rect x="101.2" y="117.2" width="7.4" height="7.4" rx="1"/><rect x="148.2" y="117.2" width="7.4" height="7.4" rx="1"/><rect x="157.6" y="117.2" width="7.4" height="7.4" rx="1"/><rect x="176.4" y="117.2" width="7.4" height="7.4" rx="1"/><rect x="195.2" y="117.2" width="7.4" height="7.4" rx="1"/><rect x="204.6" y="117.2" width="7.4" height="7.4" rx="1"/><rect x="26.0" y="126.6" width="7.4" height="7.4" rx="1"/><rect x="44.8" y="126.6" width="7.4" height="7.4" rx="1"/><rect x="54.2" y="126.6" width="7.4" height="7.4" rx="1"/><rect x="63.6" y="126.6" width="7.4" height="7.4" rx="1"/><rect x="82.4" y="126.6" width="7.4" height="7.4" rx="1"/><rect x="91.8" y="126.6" width="7.4" height="7.4" rx="1"/><rect x="138.8" y="126.6" width="7.4" height="7.4" rx="1"/><rect x="148.2" y="126.6" width="7.4" height="7.4" rx="1"/><rect x="157.6" y="126.6" width="7.4" height="7.4" rx="1"/><rect x="185.8" y="126.6" width="7.4" height="7.4" rx="1"/><rect x="195.2" y="126.6" width="7.4" height="7.4" rx="1"/><rect x="204.6" y="126.6" width="7.4" height="7.4" rx="1"/><rect x="26.0" y="136.0" width="7.4" height="7.4" rx="1"/><rect x="54.2" y="136.0" width="7.4" height="7.4" rx="1"/><rect x="63.6" y="136.0" width="7.4" height="7.4" rx="1"/><rect x="73.0" y="136.0" width="7.4" height="7.4" rx="1"/><rect x="82.4" y="136.0" width="7.4" height="7.4" rx="1"/><rect x="148.2" y="136.0" width="7.4" height="7.4" rx="1"/><rect x="195.2" y="136.0" width="7.4" height="7.4" rx="1"/><rect x="204.6" y="136.0" width="7.4" height="7.4" rx="1"/><rect x="26.0" y="145.4" width="7.4" height="7.4" rx="1"/><rect x="44.8" y="145.4" width="7.4" height="7.4" rx="1"/><rect x="54.2" y="145.4" width="7.4" height="7.4" rx="1"/><rect x="63.6" y="145.4" width="7.4" height="7.4" rx="1"/><rect x="73.0" y="145.4" width="7.4" height="7.4" rx="1"/><rect x="82.4" y="145.4" width="7.4" height="7.4" rx="1"/><rect x="91.8" y="145.4" width="7.4" height="7.4" rx="1"/><rect x="101.2" y="145.4" width="7.4" height="7.4" rx="1"/><rect x="110.6" y="145.4" width="7.4" height="7.4" rx="1"/><rect x="120.0" y="145.4" width="7.4" height="7.4" rx="1"/><rect x="129.4" y="145.4" width="7.4" height="7.4" rx="1"/><rect x="138.8" y="145.4" width="7.4" height="7.4" rx="1"/><rect x="167.0" y="145.4" width="7.4" height="7.4" rx="1"/><rect x="176.4" y="145.4" width="7.4" height="7.4" rx="1"/><rect x="185.8" y="145.4" width="7.4" height="7.4" rx="1"/><rect x="195.2" y="145.4" width="7.4" height="7.4" rx="1"/><rect x="204.6" y="145.4" width="7.4" height="7.4" rx="1"/><rect x="63.6" y="154.8" width="7.4" height="7.4" rx="1"/><rect x="73.0" y="154.8" width="7.4" height="7.4" rx="1"/><rect x="82.4" y="154.8" width="7.4" height="7.4" rx="1"/><rect x="91.8" y="154.8" width="7.4" height="7.4" rx="1"/><rect x="110.6" y="154.8" width="7.4" height="7.4" rx="1"/><rect x="120.0" y="154.8" width="7.4" height="7.4" rx="1"/><rect x="148.2" y="154.8" width="7.4" height="7.4" rx="1"/><rect x="167.0" y="154.8" width="7.4" height="7.4" rx="1"/><rect x="91.8" y="164.2" width="7.4" height="7.4" rx="1"/><rect x="101.2" y="164.2" width="7.4" height="7.4" rx="1"/><rect x="110.6" y="164.2" width="7.4" height="7.4" rx="1"/><rect x="148.2" y="164.2" width="7.4" height="7.4" rx="1"/><rect x="157.6" y="164.2" width="7.4" height="7.4" rx="1"/><rect x="101.2" y="173.6" width="7.4" height="7.4" rx="1"/><rect x="120.0" y="173.6" width="7.4" height="7.4" rx="1"/><rect x="129.4" y="173.6" width="7.4" height="7.4" rx="1"/><rect x="138.8" y="173.6" width="7.4" height="7.4" rx="1"/><rect x="148.2" y="173.6" width="7.4" height="7.4" rx="1"/><rect x="157.6" y="173.6" width="7.4" height="7.4" rx="1"/><rect x="185.8" y="173.6" width="7.4" height="7.4" rx="1"/><rect x="101.2" y="183.0" width="7.4" height="7.4" rx="1"/><rect x="110.6" y="183.0" width="7.4" height="7.4" rx="1"/><rect x="120.0" y="183.0" width="7.4" height="7.4" rx="1"/><rect x="129.4" y="183.0" width="7.4" height="7.4" rx="1"/><rect x="138.8" y="183.0" width="7.4" height="7.4" rx="1"/><rect x="204.6" y="183.0" width="7.4" height="7.4" rx="1"/><rect x="138.8" y="192.4" width="7.4" height="7.4" rx="1"/><rect x="157.6" y="192.4" width="7.4" height="7.4" rx="1"/><rect x="185.8" y="192.4" width="7.4" height="7.4" rx="1"/><rect x="195.2" y="192.4" width="7.4" height="7.4" rx="1"/><rect x="101.2" y="201.8" width="7.4" height="7.4" rx="1"/><rect x="110.6" y="201.8" width="7.4" height="7.4" rx="1"/><rect x="120.0" y="201.8" width="7.4" height="7.4" rx="1"/><rect x="148.2" y="201.8" width="7.4" height="7.4" rx="1"/><rect x="185.8" y="201.8" width="7.4" height="7.4" rx="1"/><rect x="204.6" y="201.8" width="7.4" height="7.4" rx="1"/><rect x="91.8" y="211.2" width="7.4" height="7.4" rx="1"/><rect x="138.8" y="211.2" width="7.4" height="7.4" rx="1"/><rect x="167.0" y="211.2" width="7.4" height="7.4" rx="1"/><rect x="176.4" y="211.2" width="7.4" height="7.4" rx="1"/><rect x="185.8" y="211.2" width="7.4" height="7.4" rx="1"/><rect x="195.2" y="211.2" width="7.4" height="7.4" rx="1"/><rect x="91.8" y="220.6" width="7.4" height="7.4" rx="1"/><rect x="101.2" y="220.6" width="7.4" height="7.4" rx="1"/><rect x="110.6" y="220.6" width="7.4" height="7.4" rx="1"/><rect x="129.4" y="220.6" width="7.4" height="7.4" rx="1"/><rect x="138.8" y="220.6" width="7.4" height="7.4" rx="1"/><rect x="167.0" y="220.6" width="7.4" height="7.4" rx="1"/></g>
<text x="120" y="26" font-family="system-ui,sans-serif" font-size="13" font-weight="700" fill="#A32018" text-anchor="middle">SAMPLE QR — REPLACE ME</text>
<text x="120" y="232" font-family="system-ui,sans-serif" font-size="11" fill="#8A8277" text-anchor="middle">assets/img/duitnow-qr.png</text>
</svg>